<?xml version="1.0" encoding="UTF-8" standalone="no"?>
<!-- Created with Inkscape (http://www.inkscape.org/) -->

<svg
   xmlns:dc="http://purl.org/dc/elements/1.1/"
   xmlns:cc="http://creativecommons.org/ns#"
   xmlns:rdf="http://www.w3.org/1999/02/22-rdf-syntax-ns#"
   xmlns:svg="http://www.w3.org/2000/svg"
   xmlns="http://www.w3.org/2000/svg"
   xmlns:sodipodi="http://sodipodi.sourceforge.net/DTD/sodipodi-0.dtd"
   xmlns:inkscape="http://www.inkscape.org/namespaces/inkscape"
   id="svg4190"
   version="1.1"
   inkscape:version="0.91 r13725"
   width="1080"
   height="1080"
   viewBox="0 0 1080 1080"
   sodipodi:docname="bg.svg">
  <metadata
     id="metadata4196">
    <rdf:RDF>
      <cc:Work
         rdf:about="">
        <dc:format>image/svg+xml</dc:format>
        <dc:type
           rdf:resource="http://purl.org/dc/dcmitype/StillImage" />
      </cc:Work>
    </rdf:RDF>
  </metadata>
  <defs
     id="defs4194" />
  <sodipodi:namedview
     pagecolor="#ffffff"
     bordercolor="#666666"
     borderopacity="1"
     objecttolerance="10"
     gridtolerance="10"
     guidetolerance="10"
     inkscape:pageopacity="0"
     inkscape:pageshadow="2"
     inkscape:window-width="925"
     inkscape:window-height="581"
     id="namedview4192"
     showgrid="false"
     inkscape:zoom="0.12800926"
     inkscape:cx="-232.66405"
     inkscape:cy="607.25796"
     inkscape:window-x="349"
     inkscape:window-y="67"
     inkscape:window-maximized="0"
     inkscape:current-layer="svg4190" />
  <circle
     style="opacity:1;fill:#1d6a83;fill-opacity:1;stroke:none;stroke-width:2.89400005;stroke-linecap:round;stroke-linejoin:round;stroke-miterlimit:4;stroke-dasharray:none;stroke-dashoffset:0;stroke-opacity:1"
     id="path4142"
     cx="534.97498"
     cy="545.02502"
     r="534.97498" />
  <g
     id="g4346"
     transform="matrix(1.2517625,0,0,1.2517625,-133.50115,-137.72074)">
    <g
       id="g4306">
      <g
         id="g4204"
         transform="matrix(0.80161476,-0.59784092,0.59784092,0.80161476,-222.51878,426.51201)">
        <path
           style="opacity:1;fill:#e3dbdb;fill-opacity:1;stroke:none;stroke-width:2.89400005;stroke-linecap:round;stroke-linejoin:round;stroke-miterlimit:4;stroke-dasharray:none;stroke-dashoffset:0;stroke-opacity:1"
           d="m 674.06586,412.97693 a 48.824609,48.824593 0.26706375 0 1 68.59092,7.94283 48.824609,48.824593 0.26706375 0 1 -7.94437,68.59211 48.824609,48.824593 0.26706375 0 1 -68.5906,-7.94558 48.824609,48.824593 0.26706375 0 1 7.94405,-68.58936 z m -0.29317,194.59417 a 48.824609,48.824593 0.26706375 0 1 68.58939,7.94405 48.824609,48.824593 0.26706375 0 1 -7.94406,68.58935 48.824609,48.824593 0.26706375 0 1 -68.58938,-7.94404 48.824609,48.824593 0.26706375 0 1 7.94405,-68.58936 z"
           id="path4196"
           inkscape:connector-curvature="0" />
        <path
           inkscape:connector-curvature="0"
           id="path4150"
           d="m 388.7243,412.97693 a 48.824593,48.824593 0 0 0 -68.59089,7.94283 48.824593,48.824593 0 0 0 7.94437,68.59211 48.824593,48.824593 0 0 0 68.59057,-7.94558 48.824593,48.824593 0 0 0 -7.94405,-68.58936 z m 0.29318,194.59417 a 48.824593,48.824593 0 0 0 -68.58937,7.94405 48.824593,48.824593 0 0 0 7.94406,68.58935 48.824593,48.824593 0 0 0 68.58935,-7.94404 48.824593,48.824593 0 0 0 -7.94404,-68.58936 z"
           style="opacity:1;fill:#e3dbdb;fill-opacity:1;stroke:none;stroke-width:2.89400005;stroke-linecap:round;stroke-linejoin:round;stroke-miterlimit:4;stroke-dasharray:none;stroke-dashoffset:0;stroke-opacity:1" />
        <rect
           transform="matrix(0.01083584,0.99994129,-0.99994129,0.01083584,0,0)"
           ry="235.23331"
           y="-939.22443"
           x="440.55371"
           height="827.56787"
           width="223.64813"
           id="rect4148"
           style="opacity:1;fill:#999999;fill-opacity:1;stroke:none;stroke-width:2.89400005;stroke-linecap:round;stroke-linejoin:round;stroke-miterlimit:4;stroke-dasharray:none;stroke-dashoffset:0;stroke-opacity:1" />
      </g>
      <g
         id="g4296">
        <path
           inkscape:connector-curvature="0"
           id="path4272"
           d="m 375.64269,645.70029 a 6.3120788,6.3120788 0 0 0 -6.31205,6.31215 6.3120788,6.3120788 0 0 0 6.31205,6.31206 6.3120788,6.3120788 0 0 0 6.31206,-6.31206 6.3120788,6.3120788 0 0 0 -6.31206,-6.31215 z m -0.56927,1.56388 1.36991,0 0,4.0801 3.97174,0 0,1.36992 -3.97174,0 0,4.08009 -1.36991,0 0,-4.08009 -3.98159,0 0,-1.36992 3.98159,0 0,-4.0801 z"
           style="opacity:1;fill:#000000;fill-opacity:1;stroke:none;stroke-width:2.89400005;stroke-linecap:round;stroke-linejoin:round;stroke-miterlimit:4;stroke-dasharray:none;stroke-dashoffset:0;stroke-opacity:1" />
        <path
           style="opacity:1;fill:#000000;fill-opacity:1;stroke:none;stroke-width:2.89400005;stroke-linecap:round;stroke-linejoin:round;stroke-miterlimit:4;stroke-dasharray:none;stroke-dashoffset:0;stroke-opacity:1"
           d="m 392.90479,673.31965 a 6.3120788,6.3120788 0 0 0 -6.31205,6.31215 6.3120788,6.3120788 0 0 0 6.31205,6.31206 6.3120788,6.3120788 0 0 0 6.31206,-6.31206 6.3120788,6.3120788 0 0 0 -6.31206,-6.31215 z m -0.56927,1.56388 1.36991,0 0,4.0801 3.97174,0 0,1.36992 -3.97174,0 0,4.08009 -1.36991,0 0,-4.08009 -3.98159,0 0,-1.36992 3.98159,0 0,-4.0801 z"
           id="path4274"
           inkscape:connector-curvature="0" />
        <path
           style="opacity:1;fill:#000000;fill-opacity:1;stroke:none;stroke-width:2.89400005;stroke-linecap:round;stroke-linejoin:round;stroke-miterlimit:4;stroke-dasharray:none;stroke-dashoffset:0;stroke-opacity:1"
           d="m 404.64302,624.98577 a 6.3120788,6.3120788 0 0 0 -6.31205,6.31215 6.3120788,6.3120788 0 0 0 6.31205,6.31206 6.3120788,6.3120788 0 0 0 6.31206,-6.31206 6.3120788,6.3120788 0 0 0 -6.31206,-6.31215 z m -0.56927,1.56388 1.36991,0 0,4.0801 3.97174,0 0,1.36992 -3.97174,0 0,4.08009 -1.36991,0 0,-4.08009 -3.98159,0 0,-1.36992 3.98159,0 0,-4.0801 z"
           id="path4276"
           inkscape:connector-curvature="0" />
        <path
           inkscape:connector-curvature="0"
           id="path4278"
           d="m 421.90512,652.60513 a 6.3120788,6.3120788 0 0 0 -6.31205,6.31215 6.3120788,6.3120788 0 0 0 6.31205,6.31206 6.3120788,6.3120788 0 0 0 6.31206,-6.31206 6.3120788,6.3120788 0 0 0 -6.31206,-6.31215 z m -0.56927,1.56388 1.36991,0 0,4.0801 3.97174,0 0,1.36992 -3.97174,0 0,4.08009 -1.36991,0 0,-4.08009 -3.98159,0 0,-1.36992 3.98159,0 0,-4.0801 z"
           style="opacity:1;fill:#000000;fill-opacity:1;stroke:none;stroke-width:2.89400005;stroke-linecap:round;stroke-linejoin:round;stroke-miterlimit:4;stroke-dasharray:none;stroke-dashoffset:0;stroke-opacity:1" />
        <path
           style="opacity:1;fill:#000000;fill-opacity:1;stroke:none;stroke-width:2.89400005;stroke-linecap:round;stroke-linejoin:round;stroke-miterlimit:4;stroke-dasharray:none;stroke-dashoffset:0;stroke-opacity:1"
           d="m 641.47904,433.03121 a 6.3120788,6.3120788 0 0 0 -6.31205,6.31215 6.3120788,6.3120788 0 0 0 6.31205,6.31206 6.3120788,6.3120788 0 0 0 6.31206,-6.31206 6.3120788,6.3120788 0 0 0 -6.31206,-6.31215 z m -0.56927,1.56388 1.36991,0 0,4.0801 3.97174,0 0,1.36992 -3.97174,0 0,4.08009 -1.36991,0 0,-4.08009 -3.98159,0 0,-1.36992 3.98159,0 0,-4.0801 z"
           id="path4280"
           inkscape:connector-curvature="0" />
        <path
           inkscape:connector-curvature="0"
           id="path4282"
           d="m 658.74114,460.65057 a 6.3120788,6.3120788 0 0 0 -6.31205,6.31215 6.3120788,6.3120788 0 0 0 6.31205,6.31206 6.3120788,6.3120788 0 0 0 6.31206,-6.31206 6.3120788,6.3120788 0 0 0 -6.31206,-6.31215 z m -0.56927,1.56388 1.36991,0 0,4.0801 3.97174,0 0,1.36992 -3.97174,0 0,4.08009 -1.36991,0 0,-4.08009 -3.98159,0 0,-1.36992 3.98159,0 0,-4.0801 z"
           style="opacity:1;fill:#000000;fill-opacity:1;stroke:none;stroke-width:2.89400005;stroke-linecap:round;stroke-linejoin:round;stroke-miterlimit:4;stroke-dasharray:none;stroke-dashoffset:0;stroke-opacity:1" />
        <path
           inkscape:connector-curvature="0"
           id="path4284"
           d="m 670.47937,412.31669 a 6.3120788,6.3120788 0 0 0 -6.31205,6.31215 6.3120788,6.3120788 0 0 0 6.31205,6.31206 6.3120788,6.3120788 0 0 0 6.31206,-6.31206 6.3120788,6.3120788 0 0 0 -6.31206,-6.31215 z m -0.56927,1.56388 1.36991,0 0,4.0801 3.97174,0 0,1.36992 -3.97174,0 0,4.08009 -1.36991,0 0,-4.08009 -3.98159,0 0,-1.36992 3.98159,0 0,-4.0801 z"
           style="opacity:1;fill:#000000;fill-opacity:1;stroke:none;stroke-width:2.89400005;stroke-linecap:round;stroke-linejoin:round;stroke-miterlimit:4;stroke-dasharray:none;stroke-dashoffset:0;stroke-opacity:1" />
        <path
           style="opacity:1;fill:#000000;fill-opacity:1;stroke:none;stroke-width:2.89400005;stroke-linecap:round;stroke-linejoin:round;stroke-miterlimit:4;stroke-dasharray:none;stroke-dashoffset:0;stroke-opacity:1"
           d="m 687.74147,439.93605 a 6.3120788,6.3120788 0 0 0 -6.31205,6.31215 6.3120788,6.3120788 0 0 0 6.31205,6.31206 6.3120788,6.3120788 0 0 0 6.31206,-6.31206 6.3120788,6.3120788 0 0 0 -6.31206,-6.31215 z m -0.56927,1.56388 1.36991,0 0,4.0801 3.97174,0 0,1.36992 -3.97174,0 0,4.08009 -1.36991,0 0,-4.08009 -3.98159,0 0,-1.36992 3.98159,0 0,-4.0801 z"
           id="path4286"
           inkscape:connector-curvature="0" />
      </g>
    </g>
    <g
       id="g4331">
      <g
         transform="matrix(-0.59681591,-0.80237819,0.80237819,-0.59681591,408.78979,1299.6567)"
         id="g4209">
        <path
           inkscape:connector-curvature="0"
           id="path4211"
           d="m 674.06586,412.97693 a 48.824609,48.824593 0.26706375 0 1 68.59092,7.94283 48.824609,48.824593 0.26706375 0 1 -7.94437,68.59211 48.824609,48.824593 0.26706375 0 1 -68.5906,-7.94558 48.824609,48.824593 0.26706375 0 1 7.94405,-68.58936 z m -0.29317,194.59417 a 48.824609,48.824593 0.26706375 0 1 68.58939,7.94405 48.824609,48.824593 0.26706375 0 1 -7.94406,68.58935 48.824609,48.824593 0.26706375 0 1 -68.58938,-7.94404 48.824609,48.824593 0.26706375 0 1 7.94405,-68.58936 z"
           style="opacity:1;fill:#d9d2c8;fill-opacity:1;stroke:none;stroke-width:2.89400005;stroke-linecap:round;stroke-linejoin:round;stroke-miterlimit:4;stroke-dasharray:none;stroke-dashoffset:0;stroke-opacity:1" />
        <path
           style="opacity:1;fill:#d9d2c8;fill-opacity:1;stroke:none;stroke-width:2.89400005;stroke-linecap:round;stroke-linejoin:round;stroke-miterlimit:4;stroke-dasharray:none;stroke-dashoffset:0;stroke-opacity:1"
           d="m 388.7243,412.97693 a 48.824593,48.824593 0 0 0 -68.59089,7.94283 48.824593,48.824593 0 0 0 7.94437,68.59211 48.824593,48.824593 0 0 0 68.59057,-7.94558 48.824593,48.824593 0 0 0 -7.94405,-68.58936 z m 0.29318,194.59417 a 48.824593,48.824593 0 0 0 -68.58937,7.94405 48.824593,48.824593 0 0 0 7.94406,68.58935 48.824593,48.824593 0 0 0 68.58935,-7.94404 48.824593,48.824593 0 0 0 -7.94404,-68.58936 z"
           id="path4213"
           inkscape:connector-curvature="0" />
        <rect
           style="opacity:1;fill:#808080;fill-opacity:1;stroke:none;stroke-width:2.89400005;stroke-linecap:round;stroke-linejoin:round;stroke-miterlimit:4;stroke-dasharray:none;stroke-dashoffset:0;stroke-opacity:1"
           id="rect4215"
           width="223.64813"
           height="827.56787"
           x="440.55371"
           y="-939.22443"
           ry="235.23331"
           transform="matrix(0.01083584,0.99994129,-0.99994129,0.01083584,0,0)" />
      </g>
      <g
         id="g4321">
        <path
           inkscape:connector-curvature="0"
           id="path4217"
           d="m 398.42866,402.64991 a 6.3120788,6.3120788 0 0 0 -6.31205,6.31215 6.3120788,6.3120788 0 0 0 6.31205,6.31206 6.3120788,6.3120788 0 0 0 6.31206,-6.31206 6.3120788,6.3120788 0 0 0 -6.31206,-6.31215 z m -0.56927,1.56388 1.36991,0 0,4.0801 3.97174,0 0,1.36992 -3.97174,0 0,4.08009 -1.36991,0 0,-4.08009 -3.98159,0 0,-1.36992 3.98159,0 0,-4.0801 z"
           style="opacity:1;fill:#000000;fill-opacity:1;stroke:none;stroke-width:2.89400005;stroke-linecap:round;stroke-linejoin:round;stroke-miterlimit:4;stroke-dasharray:none;stroke-dashoffset:0;stroke-opacity:1" />
        <path
           style="opacity:1;fill:#000000;fill-opacity:1;stroke:none;stroke-width:2.89400005;stroke-linecap:round;stroke-linejoin:round;stroke-miterlimit:4;stroke-dasharray:none;stroke-dashoffset:0;stroke-opacity:1"
           d="m 415.69076,430.26927 a 6.3120788,6.3120788 0 0 0 -6.31205,6.31215 6.3120788,6.3120788 0 0 0 6.31205,6.31206 6.3120788,6.3120788 0 0 0 6.31206,-6.31206 6.3120788,6.3120788 0 0 0 -6.31206,-6.31215 z m -0.56927,1.56388 1.36991,0 0,4.0801 3.97174,0 0,1.36992 -3.97174,0 0,4.08009 -1.36991,0 0,-4.08009 -3.98159,0 0,-1.36992 3.98159,0 0,-4.0801 z"
           id="path4234"
           inkscape:connector-curvature="0" />
        <path
           style="opacity:1;fill:#000000;fill-opacity:1;stroke:none;stroke-width:2.89400005;stroke-linecap:round;stroke-linejoin:round;stroke-miterlimit:4;stroke-dasharray:none;stroke-dashoffset:0;stroke-opacity:1"
           d="m 427.42899,381.93539 a 6.3120788,6.3120788 0 0 0 -6.31205,6.31215 6.3120788,6.3120788 0 0 0 6.31205,6.31206 6.3120788,6.3120788 0 0 0 6.31206,-6.31206 6.3120788,6.3120788 0 0 0 -6.31206,-6.31215 z m -0.56927,1.56388 1.36991,0 0,4.0801 3.97174,0 0,1.36992 -3.97174,0 0,4.08009 -1.36991,0 0,-4.08009 -3.98159,0 0,-1.36992 3.98159,0 0,-4.0801 z"
           id="path4236"
           inkscape:connector-curvature="0" />
        <path
           inkscape:connector-curvature="0"
           id="path4238"
           d="m 444.69109,409.55475 a 6.3120788,6.3120788 0 0 0 -6.31205,6.31215 6.3120788,6.3120788 0 0 0 6.31205,6.31206 6.3120788,6.3120788 0 0 0 6.31206,-6.31206 6.3120788,6.3120788 0 0 0 -6.31206,-6.31215 z m -0.56927,1.56388 1.36991,0 0,4.0801 3.97174,0 0,1.36992 -3.97174,0 0,4.08009 -1.36991,0 0,-4.08009 -3.98159,0 0,-1.36992 3.98159,0 0,-4.0801 z"
           style="opacity:1;fill:#000000;fill-opacity:1;stroke:none;stroke-width:2.89400005;stroke-linecap:round;stroke-linejoin:round;stroke-miterlimit:4;stroke-dasharray:none;stroke-dashoffset:0;stroke-opacity:1" />
        <path
           style="opacity:1;fill:#000000;fill-opacity:1;stroke:none;stroke-width:2.89400005;stroke-linecap:round;stroke-linejoin:round;stroke-miterlimit:4;stroke-dasharray:none;stroke-dashoffset:0;stroke-opacity:1"
           d="m 609.71677,675.3911 a 6.3120788,6.3120788 0 0 0 -6.31205,6.31215 6.3120788,6.3120788 0 0 0 6.31205,6.31206 6.3120788,6.3120788 0 0 0 6.31206,-6.31206 6.3120788,6.3120788 0 0 0 -6.31206,-6.31215 z m -0.56927,1.56388 1.36991,0 0,4.0801 3.97174,0 0,1.36992 -3.97174,0 0,4.08009 -1.36991,0 0,-4.08009 -3.98159,0 0,-1.36992 3.98159,0 0,-4.0801 z"
           id="path4264"
           inkscape:connector-curvature="0" />
        <path
           inkscape:connector-curvature="0"
           id="path4266"
           d="m 626.97887,703.01046 a 6.3120788,6.3120788 0 0 0 -6.31205,6.31215 6.3120788,6.3120788 0 0 0 6.31205,6.31206 6.3120788,6.3120788 0 0 0 6.31206,-6.31206 6.3120788,6.3120788 0 0 0 -6.31206,-6.31215 z m -0.56927,1.56388 1.36991,0 0,4.0801 3.97174,0 0,1.36992 -3.97174,0 0,4.08009 -1.36991,0 0,-4.08009 -3.98159,0 0,-1.36992 3.98159,0 0,-4.0801 z"
           style="opacity:1;fill:#000000;fill-opacity:1;stroke:none;stroke-width:2.89400005;stroke-linecap:round;stroke-linejoin:round;stroke-miterlimit:4;stroke-dasharray:none;stroke-dashoffset:0;stroke-opacity:1" />
        <path
           inkscape:connector-curvature="0"
           id="path4268"
           d="m 638.7171,654.67658 a 6.3120788,6.3120788 0 0 0 -6.31205,6.31215 6.3120788,6.3120788 0 0 0 6.31205,6.31206 6.3120788,6.3120788 0 0 0 6.31206,-6.31206 6.3120788,6.3120788 0 0 0 -6.31206,-6.31215 z m -0.56927,1.56388 1.36991,0 0,4.0801 3.97174,0 0,1.36992 -3.97174,0 0,4.08009 -1.36991,0 0,-4.08009 -3.98159,0 0,-1.36992 3.98159,0 0,-4.0801 z"
           style="opacity:1;fill:#000000;fill-opacity:1;stroke:none;stroke-width:2.89400005;stroke-linecap:round;stroke-linejoin:round;stroke-miterlimit:4;stroke-dasharray:none;stroke-dashoffset:0;stroke-opacity:1" />
        <path
           style="opacity:1;fill:#000000;fill-opacity:1;stroke:none;stroke-width:2.89400005;stroke-linecap:round;stroke-linejoin:round;stroke-miterlimit:4;stroke-dasharray:none;stroke-dashoffset:0;stroke-opacity:1"
           d="m 655.9792,682.29594 a 6.3120788,6.3120788 0 0 0 -6.31205,6.31215 6.3120788,6.3120788 0 0 0 6.31205,6.31206 6.3120788,6.3120788 0 0 0 6.31206,-6.31206 6.3120788,6.3120788 0 0 0 -6.31206,-6.31215 z m -0.56927,1.56388 1.36991,0 0,4.0801 3.97174,0 0,1.36992 -3.97174,0 0,4.08009 -1.36991,0 0,-4.08009 -3.98159,0 0,-1.36992 3.98159,0 0,-4.0801 z"
           id="path4270"
           inkscape:connector-curvature="0" />
      </g>
    </g>
  </g>
</svg>
